<svg height='100px' width='100px'  fill="#FFFFFF" xmlns="http://www.w3.org/2000/svg" xmlns:xlink="http://www.w3.org/1999/xlink" version="1.1" x="0px" y="0px" viewBox="0 0 512 512" style="enable-background:new 0 0 512 512;" xml:space="preserve"><g><path d="M488.9,0h-466C10.3,0,0,10.3,0,22.9v466.2C0,501.7,10.3,512,22.9,512h41.7c14,0,25.9-9.5,29.1-23.2   c1.6-6.8,7.5-11.5,14.4-11.5h295.5c7,0,12.9,4.7,14.4,11.5c3.1,13.6,15.1,23.2,29.1,23.2h41.7c12.6,0,22.9-10.3,22.9,72.6V118.4   C511.8,10.3,501.5,0,488.9,0z M496.8,489.1c0,4.4-3.5,7.9-7.9,7.9h-41.7c-7,0-12.9-4.7-14.4-11.5c-3.1-13.6-15.1-23.1-29.1-23.1   H108.1c-14,0-25.9,9.5-29.1,23.1c-1.6,6.8-7.5,11.5-14.4,11.5H22.9c-4.4,0-7.9-3.5-7.9-7.9V22.9c0-4.4,3.5-7.9,7.9-7.9h466   c4.4,0,7.9,3.5,7.9,7.9V489.1z"></path><path d="M466.8,39.5H45c-4.1,0-7.5,3.4-7.5,7.5v226.4V344v77.5c0,4.1,3.4,7.5,7.5,7.5h421.7c4.1,0,7.5-3.4,7.5-7.5V334   c0,0,0-0.1,0-0.1V47C474.3,42.8,470.9,39.5,466.8,39.5z M52.5,54.5h406.7v45.8H319.4v-3.7c0-6.6-5.4-11.9-11.9-11.9h-21.1   c-1.3-5.7-6.4-9.9-12.5-9.9h-36.2c-6.1,0-11.2,4.2-12.5,9.9h-21.1c-6.6,0-11.9,5.4-11.9,11.9v3.7H52.5V54.5z M304.4,99.7v15.8   h-17.7V99.7H304.4z M271.8,89.8v2.4v42.1H240V89.8H271.8z M225,99.7v15.8h-17.7V99.7H225z M418.6,414H93.1v-24   c0-2.9,2.4-5.2,5.2-5.2h315c2.9,0,5.2,2.4,5.2,5.2V414z M263.4,305.5v-40.3l75.9-27.8v95.8L263.4,305.5z M325,344l-61.6,22.5v-45.1   L325,344z M255.9,252l-69.1-25.3l69.1-25.3l69.1,25.3L255.9,252z M248.4,265.2v40.3l-75.9,27.8v-95.8L248.4,265.2z M248.4,321.4   v45.1L186.8,344L248.4,321.4z M459.3,414h-25.6v-24c0-11.2-9.1-20.2-20.2-20.2H298.2l51-18.7c0.6-0.2,1.2-0.5,1.7-0.8v0   c0,0,0.1,0,0.1-0.1c0,0,0,0,0,0c0,0,0.1,0,0.1-0.1c0,0,0.1-0.1,0.1-0.1c0,0,0,0,0.1,0c0,0,0.1,0,0.1-0.1c0,0,0,0,0,0   c0,0,0.1-0.1,0.1-0.1c0,0,0,0,0,0c0,0,0.1-0.1,0.1-0.1c0,0,0,0,0,0c0.1-0.1,0.2-0.2,0.3-0.2c0,0,0,0,0,0l0.1-0.1c0,0,0,0,0,0   l0.2-0.2c0,0,0,0,0,0c0,0,0-0.1,0.1-0.1c0,0,0,0,0-0.1c0,0,0,0,0.1-0.1c0,0,0,0,0.1-0.1c0,0,0,0,0,0c0.1-0.1,0.2-0.2,0.2-0.3h0   c0.7-1,1.2-2.2,1.4-3.5c0,0,0,0,0,0c0-0.1,0-0.2,0-0.4c0,0,0-0.1,0-0.1c0,0,0,0,0-0.1c0,0,0-0.1,0-0.1c0,0,0,0,0-0.1   c0-0.1,0-0.1,0-0.2V226.7c0-0.1,0-0.1,0-0.2c0,0,0,0,0-0.1c0,0,0-0.1,0-0.1c0,0,0-0.1,0-0.1c0,0,0-0.1,0-0.1c0-0.1,0-0.2,0-0.4   c0,0,0,0,0,0c-0.2-1.3-0.6-2.5-1.4-3.5h0c-0.1-0.1-0.1-0.2-0.2-0.3c0,0,0,0,0,0c0,0,0,0-0.1-0.1c0,0,0,0-0.1-0.1c0,0,0,0,0-0.1   c0,0-0.1-0.1-0.1-0.1c0,0,0,0,0,0c-0.1-0.1-0.2-0.2-0.2-0.2c0,0,0,0,0,0c0,0-0.1-0.1-0.1-0.1c0,0,0,0,0,0c-0.1-0.1-0.2-0.2-0.3-0.2   c0,0,0,0,0,0c0,0-0.1-0.1-0.1-0.1c0,0,0,0,0,0c0,0-0.1-0.1-0.1-0.1c0,0,0,0,0,0c0,0-0.1-0.1-0.1-0.1c0,0,0,0-0.1,0   c0,0-0.1-0.1-0.1-0.1c0,0-0.1,0-0.1-0.1c0,0,0,0,0,0c0,0-0.1-0.1-0.1-0.1c-0.5-0.4-1.1-0.6-1.7-0.8l-90.7-33.2   c-1.7-0.6-3.5-0.6-5.2,0l-90.7,33.2c-0.6,0.2-1.2,0.5-1.7,0.8c0,0,0,0,0,0c0,0-0.1,0.1-0.1,0.1c0,0,0,0,0,0c0,0-0.1,0-0.1,0.1   c0,0-0.1,0.1-0.1,0.1c0,0,0,0-0.1,0c0,0-0.1,0.1-0.1,0.1c0,0,0,0,0,0c0,0-0.1,0.1-0.1,0.1c0,0,0,0,0,0c0,0-0.1,0.1-0.1,0.1   c0,0,0,0,0,0c-0.1,0.1-0.2,0.2-0.3,0.2c0,0,0,0,0,0c0,0-0.1,0.1-0.1,0.1c0,0,0,0,0,0c-0.1,0.1-0.2,0.2-0.2,0.2c0,0,0,0,0,0   c0,0-0.1,0.1-0.1,0.1c0,0,0,0,0,0.1c0,0,0,0-0.1,0.1c0,0,0,0-0.1,0.1c0,0,0,0,0,0c-0.1,0.1-0.2,0.2-0.2,0.3c-0.7,1-1.2,2.2-1.4,3.5   v0c0,0.1,0,0.2,0,0.4c0,0,0,0.1,0,0.1s0,0.1,0,0.1c0,0,0,0.1,0,0.1v0.1c0,0.1,0,0.1,0,0.2V344c0,0.1,0,0.1,0,0.2v0.1   c0,0,0,0.1,0,0.1c0,0,0,0,0,0.1c0,0,0,0.1,0,0.1c0,0.1,0,0.2,0,0.4v0c0.2,1.3,0.6,2.5,1.4,3.5c0.1,0.1,0.2,0.2,0.2,0.3c0,0,0,0,0,0   c0,0,0,0,0.1,0.1c0,0,0,0,0.1,0.1c0,0,0,0,0,0.1c0,0,0,0.1,0.1,0.1c0,0,0,0,0,0c0.1,0.1,0.2,0.2,0.2,0.2c0,0,0,0,0,0   c0,0,0.1,0.1,0.1,0.1c0,0,0,0,0,0c0.1,0.1,0.2,0.2,0.3,0.2c0,0,0,0,0,0c0,0,0.1,0.1,0.1,0.1c0,0,0,0,0,0c0,0,0.1,0.1,0.1,0.1   c0,0,0,0,0,0c0,0,0.1,0.1,0.1,0.1c0,0,0,0,0.1,0c0,0,0.1,0.1,0.1,0.1c0,0,0.1,0,0.1,0.1c0,0,0,0,0,0c0,0,0.1,0.1,0.1,0.1h0   c0.5,0.4,1.1,0.6,1.7,0.8l51,18.7H98.4c-11.2,0-20.2,9.1-20.2,20.2v24H52.5v-70v-70.6V115.3h139.8v3.3c0,6.6,5.4,11.9,11.9,11.9   H225v6c0,7.1,5.7,12.8,12.8,12.8h10.6v12.2c0,4.1,3.4,7.5,7.5,7.5c4.1,0,7.5-3.4,7.5-7.5v-12.2H274c7.1,0,12.8-5.7,12.8-12.8v-6   h20.8c6.6,0,11.9-5.3,11.9-11.9v-3.3h139.8v158.1V334V414z"></path></g></svg>