<?xml version="1.0" encoding="UTF-8"?>
<svg width="1200pt" height="1200pt" version="1.1" viewBox="0 0 1200 1200" xmlns="http://www.w3.org/2000/svg">
 <g fill="#fff">
  <path d="m888 288h-36v-72h-60v72h-372v-72h-60v72h-24c-40.535 0-72 31.465-72 72v528c0 40.535 31.465 72 72 72h552c40.535 0 72-31.465 72-72v-528c0-40.535-31.465-72-72-72zm0 624h-552c-12.395 0-24-11.605-24-24v-480h600v480c0 12.395-11.605 24-24 24z"/>
  <path d="m372 504h120v120h-120z"/>
  <path d="m540 504h120v120h-120z"/>
  <path d="m708 504h120v120h-120z"/>
  <path d="m372 672h120v120h-120z"/>
  <path d="m540 672h120v120h-120z"/>
  <path d="m708 672h120v120h-120z"/>
 </g>
</svg>
