<svg height='100px' width='100px'  fill="#FFFFFF" xmlns="http://www.w3.org/2000/svg" xmlns:xlink="http://www.w3.org/1999/xlink" version="1.1" x="0px" y="0px" viewBox="0 0 90 90" style="enable-background:new 0 0 90 90;" xml:space="preserve"><g><path d="M44.2453613,12.7998047c-1.6137695-0.1357422-3.1875,0.3662109-4.425293,1.4121094   c-1.2387695,1.0458984-1.9960938,2.5117188-2.1318359,4.1279297c-0.1357422,1.6152344,0.3657227,3.1875,1.4121094,4.4257813   c1.1987305,1.4189453,2.9140625,2.1494141,4.6411133,2.1494141c1.3837891,0,2.7749023-0.4697266,3.9125977-1.4306641   c1.2382813-1.0458984,1.9951172-2.5117188,2.1308594-4.1279297c0.1357422-1.6152344-0.3657227-3.1875-1.4121094-4.4257813   C47.3269043,13.6923828,45.861084,12.9355469,44.2453613,12.7998047z M46.3630371,21.9570313   c-1.7133789,1.4482422-4.2871094,1.2314453-5.7353516-0.4824219c-0.7016602-0.8300781-1.0375977-1.8837891-0.9462891-2.9677734   c0.0908203-1.0830078,0.5986328-2.0654297,1.4291992-2.7675781c0.7626953-0.6445313,1.6953125-0.9589844,2.6235352-0.9589844   c1.1572266,0,2.3076172,0.4902344,3.1108398,1.4414063h0.0004883c0.7016602,0.8300781,1.0375977,1.8837891,0.9467773,2.9677734   C47.7009277,20.2724609,47.1936035,21.2558594,46.3630371,21.9570313z"></path><rect x="41.4903679" y="17.8482075" transform="matrix(0.7637196 -0.6455482 0.6455482 0.7637196 -1.8332313 32.6876678)" width="4.4928956" height="1.9998751"></rect><path d="M74.6486816,63.390625v-5.1240234H53.5495605v5.1240234H34.1081543v-8.2041016l-10.090332-3.4775391V26.3017578h6.5761719   v3.9853516h3.1318359v9.1259766h6.1479492v5.8378906l3.862793,4.2265625l3.862793-4.2265625v-5.8378906h6.1484375v-9.1259766   h3.1318359v-3.9853516h10.2011719v-2.1327515c2.7583618-0.4767456,4.8652344-2.8806763,4.8652344-5.7734985   c0-2.8919067-2.1068726-5.2957764-4.8652344-5.772522v-2.1327515H56.8796387V7.4082031H30.5939941v3.0820313h-6.5761719V7.4082031   h-9.387207V63.390625h-3.4233398v19.2011719h67.5854492V63.390625H74.6486816z M67.0808105,14.678894   c1.6449585,0.4437866,2.8652344,1.9336548,2.8652344,3.7166138s-1.2202759,3.2734375-2.8652344,3.7174683V14.678894z    M56.8796387,12.4902344h8.2011719v11.8115234h-8.2011719V12.4902344z M45.5993652,44.4755859l-1.862793,2.0371094   l-1.862793-2.0371094v-5.0625h3.7255859V44.4755859z M51.7478027,37.4130859H35.7258301v-7.1259766h16.0219727V37.4130859z    M32.5939941,9.4082031h22.2856445v18.8789063H32.5939941V9.4082031z M24.0178223,12.4902344h6.5761719v11.8115234h-6.5761719   V12.4902344z M55.5495605,60.2666016h17.0991211v3.1240234H55.5495605V60.2666016z M16.6306152,9.4082031h5.387207v43.7265625   l10.090332,3.4775391v6.7783203H16.6306152V9.4082031z M76.7927246,80.5917969H13.2072754V65.390625h63.5854492V80.5917969z"></path></g></svg>