<svg height='100px' width='100px'  fill="#FFFFFF" xmlns="http://www.w3.org/2000/svg" xmlns:xlink="http://www.w3.org/1999/xlink" version="1.1" x="0px" y="0px" viewBox="0 0 512 512" enable-background="new 0 0 512 512" xml:space="preserve"><g><path d="M512,416H352v-2.812c63.5-34.219,106.656-101.328,106.656-178.523c0-72.789-38.375-136.602-96-172.344V10.664   C362.656,4.773,357.891,0,352,0H160c-5.891,0-10.664,4.773-10.664,10.664v51.664c-57.625,35.734-96,99.555-96,172.336   c0,77.008,42.945,143.977,106.188,178.273V416H0c0,0,0.008,75.594,53.375,84.469c-0.023,0.281-0.039,0.562-0.039,0.875   C53.336,507.219,58.109,512,64,512s10.664-4.781,10.664-10.656c73.82,0,288.852,0,362.68,0c0,5.875,4.766,10.656,10.656,10.656   s10.656-4.781,10.656-10.656c0-0.312,0-0.594-0.031-0.875C512,491.594,512,416,512,416z M270.766,416l30.484-30.484l28.25,28.266   l1.156-1.156v0.562V416H270.766z M105.141,189.414l-29.82,29.812c1.398-16.703,5.078-32.992,11-48.641L105.141,189.414z    M90.055,234.664l30.172-30.172l30.172,30.172l-30.172,30.172L90.055,234.664z M105.141,279.922l-18.812,18.812   c-5.875-15.578-9.586-31.938-11.008-48.633L105.141,279.922z M301.25,113.984l30.156,30.172l-30.156,30.172l-30.172-30.172   L301.25,113.984z M255.992,129.07L225.82,98.898l30.172-30.164l30.164,30.164L255.992,129.07z M316.328,189.414l30.172-30.172   l30.172,30.172L346.5,219.586L316.328,189.414z M331.406,234.664l-30.156,30.172l-30.172-30.172l30.172-30.172L331.406,234.664z    M286.156,189.414l-30.164,30.172l-30.172-30.172l30.172-30.172L286.156,189.414z M240.906,234.664l-30.172,30.172l-30.164-30.172   l30.164-30.164L240.906,234.664z M255.992,249.75l30.164,30.172l-30.164,30.172l-30.172-30.172L255.992,249.75z M301.25,295   l30.156,30.188l-30.156,30.156l-30.172-30.156L301.25,295z M316.328,279.922L346.5,249.75l30.172,30.172L346.5,310.094   L316.328,279.922z M361.594,234.664l30.156-30.172l30.188,30.172l-30.188,30.172L361.594,234.664z M436.688,250.086   c-1.438,16.836-5.188,33.195-11.031,48.664l-18.812-18.828L436.688,250.086z M406.844,189.414l18.828-18.836   c5.922,15.656,9.609,31.953,11.016,48.672L406.844,189.414z M391.75,174.328l-30.156-30.172l29.938-29.945   c9.688,10.875,17.969,22.781,24.75,35.586L391.75,174.328z M346.5,129.07l-30.172-30.172l24.531-24.523   c12.797,6.781,24.703,15.062,35.578,24.75L346.5,129.07z M301.25,83.82l-29.836-29.836c16.711,1.398,33.008,5.086,48.664,11   L301.25,83.82z M240.562,53.992L210.734,83.82l-18.82-18.828C207.562,59.07,223.852,55.391,240.562,53.992z M171.133,74.383   l24.516,24.516l-30.164,30.172l-29.945-29.938C146.422,89.445,158.328,81.164,171.133,74.383z M210.734,113.984l30.172,30.172   l-30.172,30.172l-30.172-30.172L210.734,113.984z M195.648,189.414l-30.164,30.172l-30.172-30.172l30.172-30.172L195.648,189.414z    M165.484,249.75l30.164,30.172l-30.164,30.172l-30.172-30.172L165.484,249.75z M210.734,295l30.172,30.188l-30.172,30.156   l-30.164-30.156L210.734,295z M255.992,340.25l30.164,30.188l-30.164,30.156l-30.172-30.156L255.992,340.25z M341.875,394.406   l-1.016,0.562l-24.531-24.531L346.5,340.25l29.969,29.969C366.062,379.469,354.469,387.625,341.875,394.406z M391.562,355.156   l-29.969-29.969L391.75,295l24.531,24.531C409.5,332.312,401.219,344.281,391.562,355.156z M170.664,21.336h170.68v29.469   C315.406,38.742,286.484,32,256,32s-59.398,6.742-85.336,18.805V21.336z M120.461,114.219l29.938,29.938l-30.172,30.172   l-24.516-24.523C102.492,137,110.766,125.094,120.461,114.219z M95.711,319.531L120.227,295l30.172,30.188l-29.945,29.938   c-7.258-8.156-13.797-17-19.516-26.391C99.102,325.719,97.359,322.625,95.711,319.531z M135.539,370.203l29.945-29.953   l30.164,30.188l-24.523,24.531l-1.43-0.781C157.383,387.5,145.93,379.438,135.539,370.203z M180.859,412.938v-0.781l1.617,1.625   l28.258-28.266L241.219,416h-60.359V412.938z M470.562,472.281C464.594,477.469,457.219,480,448,480H64   c-9.211,0-16.594-2.531-22.555-7.719c-5.297-4.594-9.719-11.406-13.156-20.281c-1.922-4.953-3.312-10-4.32-14.656h464.062   c-1,4.656-2.406,9.703-4.312,14.656C480.281,460.875,475.844,467.688,470.562,472.281z"></path><path d="M256,448c-5.891,0-10.664,4.781-10.664,10.656c0,5.906,4.773,10.688,10.664,10.688s10.664-4.781,10.664-10.688   C266.664,452.781,261.891,448,256,448z"></path></g></svg>