<svg height='100px' width='100px'  fill="#FFFFFF" xmlns="http://www.w3.org/2000/svg" viewBox="0 0 100 100" x="0px" y="0px"><path d="m65.224609 8.9511719c-1.909241-.0137-3.819009-.00595-5.728515.03125-4.578097.0604-9.155563.1568169-13.732422.2792969-4.592273.12506-9.184159.29142-13.773438.5-3.975466.1789099-7.949238.3692782-11.919922.6367192-2.744913.178679-5.490497.361354-8.238281.490234-1.464343.0646-2.9302074.142928-4.3964841.111328-.6153117-.0198-1.2260052-.079594-1.8339844-.177734-1.8824516-.20916-2.1793265 2.452949-.296875 2.662109.673567.1119 1.3534877.165106 2.0351563.191406 1.5375502.0364 3.0738282-.0436 4.6093752-.111328 2.76648-.12957 5.53134-.314271 8.294922-.494141 3.952839-.266259 7.909583-.454732 11.867187-.632812 4.573445-.20783 9.148181-.373497 13.72461-.498047 3.58728-.096 7.175628-.15957 10.763671-.21875-.02387.12726-.03362.242129-.03516.355469-.03173.14667-.05396.295795-.04687.447266v.169921.214844.384766c.000002.1539.000001.30898 0 .46289-.000004.0783.000075.156075 0 .234375-.000144.16276.000119.325522 0 .488282-.0001.33352-.000088.6665.0039 1 .0069.43667.02016.874597.04687 1.310546.01092.18433.0066.368415.01367.552735h-.002c-.433847.0855-.859106.209559-1.253906.412109-.267052.13702-.351739.20747-.595703.375-.357035.27175-.694168.575795-.97461.927735-.190197.23869-.239104.334727-.394531.585937-.156875.26277-.260672.547598-.357422.835938-.07511.23345-.09494.449544-.07617.646484-.12607.49479-.404656 1.019675.146485 1.390625.0031.7982.414756 1.627861.410156 2.425781-.01619.82538.000296 1.65052.02734 2.47461-.830261-.62036-1.651432-1.253181-2.408203-1.962891-.553719-.51637-1.104014-1.039999-1.580078-1.630859-.463345-.57918-1.060038-.665196-1.550782-.478516-.342304-.044-.723711.05321-1.089844.353516-.106935.0939-.03564.0348-.216796.166015-.713451.48931-1.412577.999558-2.105469 1.517578-1.010273.77501-2.011214 1.562062-3.025391 2.332032-1.363268 1.03655-2.743084 2.049491-4.109375 3.082031-1.756705 1.34055-3.492859 2.70734-5.238281 4.0625-1.991947 1.54493-3.989084 3.083345-6 4.603516-2.080814 1.576469-4.171716 3.141532-6.269531 4.695312-2.046519 1.53825-4.100486 3.065902-6.144531 4.607422-3.295018 2.46629-3.444642 2.624034-6.3632818 5.089844-.5915235.47852-1.1876282.953587-1.8007812 1.404296-1.5152288 1.13642.092193 3.278999 1.6074219 2.142579.6393014-.47024 1.2599393-.964001 1.8769531-1.462891 3.023049-2.58153 3.357767-2.819206 6.294922-5.035156 2.042684-1.54048 4.093527-3.068249 6.138672-4.605469 2.100583-1.55576 4.193812-3.122652 6.277344-4.701172 2.018992-1.52621 4.023458-3.070054 6.023437-4.621094 1.739976-1.35075 3.471469-2.714561 5.222656-4.050781 1.365299-1.03124 2.743367-2.044598 4.105469-3.080078 1.017259-.77225 2.021795-1.560601 3.035156-2.337891.608809-.45453 1.222991-.899761 1.847656-1.332031.397715.42647.810179.838008 1.236329 1.236328 1.24526 1.17171 2.641722 2.162738 4.011718 3.179688.140777.10541.282912.209233.423829.314453.09395 1.24112.220573 2.478903.308593 3.720703.0041.0604.0041.121201.0078.181641-.300551-.024-.601136-.04484-.902344-.05664-.307355-.0188-.615546.004-.921875.02734-.175654.013-.108332.01771-.201172.0078-.02161-.002-.04349.0021-.06445-.0039-.02206-.006.08784.0081.06836-.0039-.105423-.0643-.335549-.096-.451171-.123047-.443808-.0986-.812119-.0195-1.09375.158203-.356524-.53049-.679355-1.083654-.970704-1.652344-.170738-.34463-.335271-.691829-.492187-1.042968.79024-1.28569-.894697-2.804972-2.136719-1.582032-.0964.10127-.20117.194084-.3125.277344-.0048.004-.01091.0058-.01563.0098-.106969.0788-.218001.14997-.335937.21289-.488869.24953-1.004985.43972-1.492188.69336-.237137.1369-.367796.200303-.583984.371093-.348516.27533-.63729.610118-.863282.992188-.392176.70592-.178621 1.331771.251954 1.707031.01837.0527.0321.104223.05664.158203.321697.71265.744047 1.373986 1.158203 2.035157.464026.76738 1.023617 1.468791 1.617188 2.138671.136822.16122.297685.310827.390625.503907.01292.0248.02941.04291.04297.06641.07903.2313.223017.458462.46289.664062.380251.3256.747462.667304 1.125.996094.43837.40894.928934.750103 1.4375 1.064453.09476.0591.19558.104817.294922.154297.08575.29683.180962.591093.283203.882813.627312 1.78714 3.154656.900411 2.527344-.886719-.123071-.34999-.236352-.702833-.320312-1.064453-.0072-.13685-.03734-.270471-.08789-.400391-.129728-.62023-.242824-1.245403-.300781-1.876953-.04099-.46694-.08382-.933124-.07422-1.402344.01481-.1333.01209-.255877 0-.373047.298778-.012.597267-.0442.896484-.0332.313491.0122.626549.03389.939453.05469.0042.27342.06403.528502.203125.794922.02916.11535.06825.234158.128907.355468.262576.5083.56029.995363.86914 1.476563.334379.48605.670951.970482.97461 1.476562.179325.30153.329641.619325.496093.927735.05956.089.19494.311053.28711.376953.135287.0968.265913.238154.414062.308594-.0045.54792-.0111 1.096611-.01172 1.644531-.000529.99663-.000196 1.991661 0 2.988281.0031.89136.0078 1.782568-.02344 2.673828-.0348.73948-.125347 1.47968-.185547 2.21875-.05401.47462-.03386.949118-.0039 1.423828.0069.24302.05949.484523.103516.726563.0095.093.03622.18329.06641.275391.03925.0733.0876.128363.146484.183593.125844.7991 2.657059.784776 2.666016-.05859v-.0078c.424605.75147 1.564929 1.069033 2.294922.0957.432774-.53869.805136-1.12277 1.210937-1.68164.657304-.8699 1.416627-1.656701 2.148438-2.462891.448766-.48931.879853-.993563 1.30664-1.501953 1.217056-1.45126-.835677-3.171963-2.052734-1.720703-.403779.48202-.811363.960188-1.236328 1.423828-.797438.87856-1.623966 1.736473-2.333985 2.689453-.397012.54774-.762398 1.118344-1.185546 1.646484-.310536.41405-.371041.833123-.279297 1.195313-.01861-.0241-.04084-.04721-.06445-.07031-.0078-.0434-.01794-.0939-.01953-.107422-.04001-.22-.08795-.439236-.09375-.660156-.02831-.44774-.04826-.89608.0039-1.34375.06081-.74772.151197-1.49599.185547-2.24414.03133-.89783.02859-1.79543.02539-2.69336-.000197-.99637-.000529-1.991891 0-2.988281.000704-.62349.0051-1.247604.01172-1.871094.192728-.32911.380958-.661159.589843-.980469.234269-.40561.519374-.773682.810547-1.138672.251753-.316199.511485-.628335.759766-.947265.232082-.27774.373605-.597193.455078-.945313.272096-.26041.412456-.59133.384766-1.03125.173.13725.343042.278246.515625.416016.0077.20514.02768.409994.02344.615234-.02675.59645-.05112 1.192123-.03125 1.789063.0092.32727.05366.651412.08984.976562-.0024.003-.0054.0048-.0078.0078-1.232621 1.43806.800582 3.180247 2.033204 1.742187.243465-.28882.505476-.558579.779296-.818359.370802-.32612.750594-.642418 1.132813-.955078.0094-.008.01982-.01388.0293-.02148 1.844511 1.57898 3.657809 3.19382 5.472656 4.80664 2.142878 1.93419 4.289014 3.863324 6.482422 5.740234 1.903025 1.61683 3.830261 3.205183 5.810547 4.726563 1.490435 1.14648 3.032282 2.22472 4.542969 3.34375.639951.51059 1.3133.984292 1.912109 1.544922.219729.20572.310619.321189.501953.542969.0067.01.0018.005.0078.01367-.415863.354469-.837112.701705-1.265625 1.041015-1.705407 1.33054-3.425121 2.641617-5.134766 3.966797-2.455697 1.91861-4.990041 3.733026-7.486328 5.597656-2.455378 1.85537-4.938589 3.675462-7.429688 5.482422-2.117563 1.51723-4.249551 3.012688-6.353515 4.548828-1.616799 1.18417-3.25426 2.340768-4.916016 3.460938-1.165215.76759-7.20292 5.338142-8.345703 6.138672-1.078438.7466-.599268 3.411841 2.136719 1.988281 1.129635-.79145 6.555139-5.14747 7.707031-5.90625 1.689314-1.13917 3.354349-2.313468 4.998047-3.517578 2.101535-1.53469 4.230743-3.028902 6.345703-4.544922 2.501235-1.81432 4.993573-3.641036 7.458984-5.503906 2.508926-1.87429 5.057446-3.698173 7.525391-5.626953 1.717071-1.33095 3.443613-2.647815 5.15625-3.984376.720036-.57056 1.433646-1.15007 2.107422-1.77539.700682-.62283.616899-1.424101.183594-1.925781-.03153-.12401-.07392-.25051-.142579-.38086-.322721-.57732-.143921-.29996-.539062-.83789-.318484-.35956-.389289-.456032-.753906-.794922-.652935-.60687-1.382642-1.127088-2.080078-1.679688-1.498424-1.10929-3.027149-2.178453-4.50586-3.314453-1.943321-1.4921-3.831692-3.052922-5.699218-4.638672-2.180831-1.86584-4.314596-3.784381-6.445313-5.707031-1.803344-1.60258-3.605764-3.207104-5.4375-4.777344.124759-.25956.245506-.521007.373047-.779297.370796-.72872.754277-1.45093 1.121094-2.18164.26254-.52814.541258-1.047596.810546-1.572266 1.070973-.26223 1.518473-1.872203.189454-2.533203-.360111-.17496-.735634-.311538-1.095704-.486328-.448008-.20216-.903354-.391358-1.36914-.548828-.373307-.112-.699262-.08707-.970703.01953-.355077.004-.726834.155447-1.048828.523438-.380662.457969-.7198.949091-1.083985 1.419921-.34239.43146-.672299.872367-1.005859 1.310547-.260504-.12137-.57912-.166754-.953125-.08398-.259973.0609-.520324.123906-.789063.128906-.0191.00048-.03758-.002-.05664-.002-.258309-.20177-.519847-.399309-.779297-.599609-.0079-.18816-.01727-.376323-.02539-.564454-.03998-1.572879-.06727-3.14578-.0078-4.71875.07576-1.793929.161148-3.588892.236328-5.382812.0154-.54932.219809-.750631.224609-1.300781.110549-.13155.02121-.618224.0918-.777344.05567-.12551.08984-.260885.134766-.390625.118399-.50396.0056-.990247-.160157-1.466797-.211044-.58023-.533283-.938929-1.029296-1.292969-.278129-.18046-.553772-.364952-.835938-.539062-.458697-.27031-.956344-.441584-1.474609-.552734-.208542-.0471-.419371-.0775-.63086-.103516-.0077-.20056-.0018-.401013-.01367-.601563-.02436-.39734-.03677-.795359-.04297-1.193359-.0038-.31911-.004-.637911-.0039-.957031.000122-.16233.0018-.325952.002-.488281.000076-.0791-.000004-.157229 0-.236329v-.46289-.384766-.214844-.169921c.000167-.0155-.000117.0052 0-.0078.02116-.1.03431-.225834.03516-.302734-.02837.0969-.08612.300523.03711-.154297.01588-.10913.01561-.220038.01563-.330078-.000074-.0211.000075-.04424 0-.05664-.000034-.002.000027-.0039 0-.0059.08205-.001.164049-.0049.246094-.0059 3.785484-.0747 7.570975-.02795 11.355469.06445 2.903902.08 5.805098.210927 8.707031.341797 2.23788.10699 4.475432.215757 6.714844.285156 1.523404.0597 3.04791.106813 4.572265.132813.867038.0223 1.733356-.01653 2.59961-.04883 3.004454-.57858 1.073495-2.8069645-.09961-2.6777345-.817782.0305-1.636553.069928-2.455078.048828-1.511946-.0257-3.022198-.073702-4.533203-.1328125-2.226805-.0689-4.45245-.1770131-6.677734-.2832031-2.92039-.13171-5.841296-.26345-8.763672-.34375-1.90901-.0465-3.817322-.082003-5.726563-.095703zm-8.660156 3.1660161c-.000121.0639-.0015.122801 0 .201171.0002.01-.0019-.0193-.002-.0293-.000558-.0548-.0079-.109862 0-.164062.000385-.003.0016-.0048.002-.0078zm2.708985 7.830078c.02847.006.05757.007.08594.01367.213005.0345.405563.110384.597656.208984.129636.0793.255537.165007.382813.248047-.02211.0724-.034.151792-.04492.232422-.170701.0855-.344846.164295-.525391.228515-.395725.14952-.812728.244022-1.232422.294922-.115144.01-.230393.01118-.345703.01758.544277-.0973 1.028129-.5014 1.082032-1.24414zm-2.640626.15625c.112704.6902.625234 1.048638 1.169922 1.105468-.240873-.00072-.481621-.0178-.720703-.0625-.342168-.062-.674624-.162162-.998047-.289062-.02579-.0992-.05416-.193987-.0918-.279297.08643-.0921.175402-.182636.279296-.259766.120569-.09.237449-.159043.361328-.214843zm3.324219 2.77539c.471565-.04287.97453.249126 1.035157.916016.03135.5352.05732 1.069799.08008 1.605469.02099.78789.04288 1.575511.06836 2.363281.03688.70277.06804 1.405855.08594 2.109375.01082.50962.0071 1.020087.03125 1.529297.02234.40313.03454.805314.04102 1.208984.0044.33761.0059.676042.0059 1.013672-.01698 1.335307-.147275 2.67283-.128907 3.976562.01185.726822-1.31741 2.437914-1.826172.429688-.204675-1.462518.05794-2.942197.06055-4.40625-.000035-.32765.00033-.654802-.0039-.982422-.0061-.38407-.01773-.768794-.03906-1.152344-.02442-.52287-.0235-1.045079-.0332-1.568359-.01768-.69914-.04993-1.399246-.08594-2.097656-.02526-.78144-.04791-1.5622-.06836-2.34375-.02136-.50524-.04716-1.010705-.07422-1.515625-.06063-.666895.379998-1.043069.851562-1.085938zm-13.390625 11.322266c.09434-.106818.65748.513342 1.775391 2.271484.280604.3607.550784.725046.765625 1.128906.07107.1429.126957.293237.185547.441407.04715.11924.103957.223669.166015.318359.0048.13688.01058.273406.01953.410156-.11277-.1009-.225822-.201301-.339844-.300781-.0114-.0243-.01652-.04767-.0293-.07227-.205479-.384071-.468698-.731959-.767578-1.048829-1.243263-1.671643-1.896688-3.0111-1.775391-3.148437zm22.519532.146484c.006.002.01163.0048.01758.0078-.206262.39581-.415202.791416-.613282 1.191406-.367977.73593-.755146 1.461282-1.126953 2.195313-.02965.06-.04807.12643-.08594.18164-1.828884 2.66662-1.635433 1.865561-.558594-.449219.06918-.10587.140251-.21077.214844-.3125.48698-.6628.993146-1.312421 1.503906-1.957031.218853-.28409.432992-.570832.648438-.857422zm-17.794922 13.527344c-.837297.0483-1.613588.879188-1.132813 1.960938.334442.67403.79612 1.270451 1.253906 1.863281.665447.81014 1.279316 1.658074 1.873047 2.521484.371333.56122.190397.284104.546875.833985 1.030514 1.589159 3.27856.132118 2.248047-1.457032-.379199-.58461-.185339-.287151-.58789-.894531-.62195-.90399-1.264893-1.793618-1.960938-2.642578-.327905-.42395-.659977-.84555-.925781-1.3125-.288466-.64905-.812076-.902017-1.314453-.873047zm17.132812 6.074219c-.191412-.016-.403288.006-.628906.07813-1.161652.36947-2.32666.727453-3.480469 1.121094-.669522.229179-1.342768.448482-1.994141.726562-1.73079.76924-.642901 3.218459 1.087891 2.449219.580461-.24274 1.178574-.437025 1.773438-.640625 1.135436-.38704 2.282715-.739986 3.425781-1.103516 1.57933-.50229 1.156293-2.518999-.183594-2.630859zm-19.507812.345703c-1.341023-.0973-2.072162 1.829152-.589844 2.570312.623455.31033 1.30291.474391 1.972656.650391.520053.12692 1.041714.247224 1.5625.371094 1.842645.43821 2.461787-2.167249.619141-2.605469-.500423-.119-1.001959-.234679-1.501953-.355469-.491051-.12899-.993321-.239891-1.455078-.457031-.21176-.10588-.415848-.159928-.607422-.173828zm-26.091797 2.996094c-.260531-.0126-.522125-.01003-.935547.01367-1.278317.0731-2.534108.373404-3.705078.890624-.759433.386321-1.0146.486534-1.730469.970704-1.198253.81043-2.235489 1.832148-3.183594 2.917968-.247898.30475-.505451.602043-.74414.914063-1.181144 1.54399-2.129212 3.254082-2.8925785 5.039062-.3429514.86524-.4771867 1.156619-.7539063 2.042969-.4096699 1.3122-.6835075 2.666389-.7929687 4.03711-.014379.33107-.040179.66277-.042969.99414-.012242 1.4535.2067747 2.907843.7578124 4.257813.098997.21298.1893421.429872.296875.638671.4610524.89527 1.0935688 1.686203 1.9746098 2.195313.139244.0715.273721.147591.416015.212891.566768.25998 1.184625.422106 1.808594.441406 1.894036 0 1.894036-2.679688 0-2.679688-.349428-.0268-.673059-.17516-.974609-.34375-.557186-.36626-.823287-.993488-1.085938-1.580078-.395797-1.0206-.533605-2.118674-.515625-3.208984.0044-.26779.02735-.535265.04102-.802734.100847-1.16522.342585-2.314968.695312-3.429688.241514-.76325.366851-1.036796.666016-1.785156.681379-1.58071 1.521432-3.095858 2.574219-4.460938.207381-.26889.431052-.524619.646484-.787109.805078-.91384 1.680611-1.780361 2.699219-2.457031.528428-.35105.781922-.454495 1.345703-.734375 1.093129-.45432 2.275089-.669588 3.458984-.617188.231177.0102.460884.04035.691406.06055 1.161561.16219 2.271073.563928 3.289063 1.142578.215108.12227.420258.260735.630859.390625 1.411193.92747 2.585581 2.14709 3.730469 3.375.917355.97926 1.826141 1.967124 2.789063 2.902344.715138.69456.853771.79971 1.603515 1.462891 1.139725.965059 2.363277 1.828022 3.677735 2.539062.849926.45976 1.136679.565215 2.017578.953125 1.581472.63586 3.221899 1.141309 4.912109 1.386719.310404.0451.623945.0715.935547.107422 1.248072.096 2.510077.0276 3.728516-.271485.812995-.19954 1.002792-.306071 1.779296-.613281 1.460468-.6624 2.719646-1.658159 3.816407-2.818359.216119-.22862.419398-.468435.628906-.703125.988759-1.19713 1.819319-2.530889 2.371094-3.986328.102274-.26977.18355-.546813.27539-.820313.300008-1.00698.440826-2.049509.416016-3.099609-.01406-.59515-.04923-.775039-.121094-1.361328-.07912-.61233-.22304-1.211757-.36914-1.810547-.451977-1.83932-3.051587-1.200648-2.59961.638671.12358.49866.242927.999596.310547 1.509766.06082.46009.08399.548938.101563 1.017578.02871.76602-.06916 1.528865-.28125 2.265625-.06801.20972-.126805.422067-.203125.628907-.436485 1.182909-1.108932 2.263231-1.902344 3.238281-.174989.19799-.344976.4007-.525391.59375-.841968.90096-1.797091 1.693096-2.917969 2.222656-.571004.23497-.715525.317206-1.314453.472656-.943217.24481-1.925132.300975-2.894531.234375-.2593-.0284-.519038-.04964-.777344-.08594-1.477417-.20792-2.911585-.649379-4.294922-1.199219-.759962-.33145-1.022267-.428263-1.753906-.820312-1.15908-.62111-2.239492-1.379563-3.24414-2.226563-.684892-.60418-.826491-.715059-1.480469-1.349609-.941278-.91332-1.830056-1.877385-2.726563-2.833985-1.31179-1.40456-2.665264-2.789477-4.291015-3.835937-.266349-.16123-.526941-.330722-.798828-.482422-1.332512-.74348-2.787157-1.243094-4.302735-1.433594-.409985-.0307-.669157-.05771-.929687-.07031z"></path></svg>