<svg height='100px' width='100px'  fill="#FFFFFF" xmlns:dc="http://purl.org/dc/elements/1.1/" xmlns:cc="http://creativecommons.org/ns#" xmlns:rdf="http://www.w3.org/1999/02/22-rdf-syntax-ns#" xmlns:svg="http://www.w3.org/2000/svg" xmlns="http://www.w3.org/2000/svg" viewBox="0 0 32 32" version="1.1" x="0px" y="0px"><g transform="matrix(1.0034987,0,0,1.0034261,-0.0559793,199.99012)" style="" display="inline" stroke-width="0.99655"><path style="color:#000000;font-style:normal;font-variant:normal;font-weight:normal;font-stretch:normal;font-size:medium;line-height:normal;font-family:sans-serif;font-variant-ligatures:normal;font-variant-position:normal;font-variant-caps:normal;font-variant-numeric:normal;font-variant-alternates:normal;font-variant-east-asian:normal;font-feature-settings:normal;font-variation-settings:normal;text-indent:0;text-align:start;text-decoration:none;text-decoration-line:none;text-decoration-style:solid;text-decoration-color:#000000;letter-spacing:normal;word-spacing:normal;text-transform:none;writing-mode:lr-tb;direction:ltr;text-orientation:mixed;dominant-baseline:auto;baseline-shift:baseline;text-anchor:start;white-space:normal;shape-padding:0;shape-margin:0;inline-size:0;clip-rule:nonzero;display:inline;overflow:visible;visibility:visible;opacity:1;isolation:auto;mix-blend-mode:normal;color-interpolation:sRGB;color-interpolation-filters:linearRGB;solid-color:#000000;solid-opacity:1;vector-effect:none;fill:#FFFFFF;fill-opacity:1;fill-rule:nonzero;stroke:none;stroke-linecap:round;stroke-linejoin:round;stroke-miterlimit:4;stroke-dasharray:none;stroke-dashoffset:0;stroke-opacity:1;color-rendering:auto;image-rendering:auto;shape-rendering:auto;text-rendering:auto;enable-background:accumulate;stop-color:#000000;stop-opacity:1" d="m 16,-197.31445 c -6.0614224,0 -10.9960938,4.93662 -10.9960938,10.99804 0,4.41523 2.6617782,8.53375 5.2324218,11.59571 2.570644,3.06195 5.144531,5.0957 5.144531,5.0957 a 0.99664968,0.99664968 0 0 0 1.238282,0 c 0,0 2.573887,-2.03375 5.144531,-5.0957 2.570644,-3.06196 5.232422,-7.18048 5.232422,-11.59571 0,-6.06142 -4.934672,-10.99804 -10.996094,-10.99804 z m 0,1.99414 c 4.984272,0 9.003906,4.01963 9.003906,9.0039 0,3.58477 -2.338222,7.42079 -4.767578,10.31446 -1.933949,2.30357 -3.528932,3.68303 -4.236328,4.27539 -0.707396,-0.59236 -2.302379,-1.97182 -4.236328,-4.27539 -2.4293564,-2.89367 -4.7675782,-6.72969 -4.7675782,-10.31446 0,-4.98427 4.0196342,-9.0039 9.0039062,-9.0039 z"></path><path style="color:#000000;font-style:normal;font-variant:normal;font-weight:normal;font-stretch:normal;font-size:medium;line-height:normal;font-family:sans-serif;font-variant-ligatures:normal;font-variant-position:normal;font-variant-caps:normal;font-variant-numeric:normal;font-variant-alternates:normal;font-variant-east-asian:normal;font-feature-settings:normal;font-variation-settings:normal;text-indent:0;text-align:start;text-decoration:none;text-decoration-line:none;text-decoration-style:solid;text-decoration-color:#000000;letter-spacing:normal;word-spacing:normal;text-transform:none;writing-mode:lr-tb;direction:ltr;text-orientation:mixed;dominant-baseline:auto;baseline-shift:baseline;text-anchor:start;white-space:normal;shape-padding:0;shape-margin:0;inline-size:0;clip-rule:nonzero;display:inline;overflow:visible;visibility:visible;opacity:1;isolation:auto;mix-blend-mode:normal;color-interpolation:sRGB;color-interpolation-filters:linearRGB;solid-color:#000000;solid-opacity:1;vector-effect:none;fill:#FFFFFF;fill-opacity:1;fill-rule:nonzero;stroke:none;stroke-linecap:round;stroke-linejoin:round;stroke-miterlimit:4;stroke-dasharray:none;stroke-dashoffset:0;stroke-opacity:1;color-rendering:auto;image-rendering:auto;shape-rendering:auto;text-rendering:auto;enable-background:accumulate;stop-color:#000000;stop-opacity:1" d="m 16,-191.31445 c -2.747715,0 -4.996094,2.25033 -4.996094,4.99804 0,2.74772 2.248379,4.9961 4.996094,4.9961 2.747715,0 4.996094,-2.24838 4.996094,-4.9961 0,-2.74771 -2.248379,-4.99804 -4.996094,-4.99804 z m 0,1.99414 c 1.670563,0 3.003906,1.33334 3.003906,3.0039 0,1.67057 -1.333343,3.00196 -3.003906,3.00196 -1.670563,0 -3.003906,-1.33139 -3.003906,-3.00196 0,-1.67056 1.333343,-3.0039 3.003906,-3.0039 z"></path></g></svg>