<svg height='100px' width='100px'  fill="#FFFFFF" xmlns="http://www.w3.org/2000/svg" xmlns:xlink="http://www.w3.org/1999/xlink" version="1.1" x="0px" y="0px" viewBox="0 0 70 70" style="enable-background:new 0 0 70 70;" xml:space="preserve"><path d="M63.6298828,11.0205078h-0.9594727V3c0-0.5527344-0.4477539-1-1-1s-1,0.4472656-1,1v8.0205078h-7.1914062V6.6376953  c0-2.0253906-1.6083984-3.6826172-3.6152344-3.7597656C49.8383789,2.8759766,49.8129883,2.875,49.7875977,2.875h-0.0712891  c-0.0253906,0-0.0507812,0.0009766-0.0761719,0.0029297c-2.0068359,0.0771484-3.6152344,1.734375-3.6152344,3.7597656v4.3828125  H13.9365234h-1.3330078v-2.6875c0-0.5527344-0.4477539-1-1-1s-1,0.4472656-1,1v2.6875H9.2700195H6.3598633  C3.9560547,11.0205078,2,12.9804688,2,15.3896484v15.8701172c0,2.4042969,1.9560547,4.3603516,4.3598633,4.3603516h0.8686523  v4.0419922c0,1.6660156,1.3549805,3.0214844,3.0205078,3.0214844h0.3544922v4.5c0,0.5527344,0.4477539,1,1,1s1-0.4472656,1-1v-4.5  h0.3540039c1.6660156,0,3.0209961-1.3554688,3.0209961-3.0214844v-4.0419922h2.7016602  c2.703125,0,5.1210938-1.8134766,5.8798828-4.4101562L25.2792969,28.75h16.1108398v18.1728516  c0,1.3017578-1.059082,2.3603516-2.3603516,2.3603516H6.3598633C3.9560547,49.2832031,2,51.2431641,2,53.6533203v9.9765625  C2,66.0400391,3.9560547,68,6.3598633,68H67c0.5522461,0,1-0.4472656,1-1V15.3896484  C68,12.9804688,66.0395508,11.0205078,63.6298828,11.0205078z M13.9785156,39.6621094  c0,0.5634766-0.4580078,1.0214844-1.0209961,1.0214844h-2.7084961c-0.5625,0-1.0205078-0.4580078-1.0205078-1.0214844V35.625h4.75  V39.6621094z M48.0249023,6.6376953c0-0.9599609,0.7714844-1.7431641,1.7270508-1.7626953  c0.9555664,0.0195312,1.7270508,0.8027344,1.7270508,1.7626953v4.3828125h-3.4541016V6.6376953z M10.2700195,22.5h2.6665039v2.25  h-2.6665039V22.5z M12.9365234,13.0205078V20.5h-2.6665039v-7.4794922H12.9365234z M22.6401367,30.6494141  c-0.519043,1.7763672-2.1108398,2.9707031-3.9599609,2.9707031H6.3598633C5.0585938,33.6201172,4,32.5615234,4,31.2597656  V15.3896484c0-1.3066406,1.0585938-2.3691406,2.3598633-2.3691406h1.9101562V25.75c0,0.5527344,0.4477539,1,1,1h4.6665039  c0.5522461,0,1-0.4472656,1-1V13.0205078h8.5585938v14.7047119L22.6401367,30.6494141z M25.4951172,26.75V13.0205078h15.8950195  V26.75H25.4951172z M6.3598633,51.2832031h32.6699219c2.4042969,0,4.3603516-1.9560547,4.3603516-4.3603516V27.75V13.0205078  h3.6347656h5.4541016h11.1508789c1.3066406,0,2.3701172,1.0625,2.3701172,2.3691406v41.1435547H4v-2.8798828  C4,52.3466797,5.0585938,51.2832031,6.3598633,51.2832031z M6.3598633,66C5.0585938,66,4,64.9365234,4,63.6298828v-5.0966797h62V66  H6.3598633z"></path><path d="M60.1855469,39.3837891c-1.4897461-1.3408203-3.4160156-2.0146484-5.4121094-1.9130859  c-2.0004883,0.1064453-3.8398438,0.984375-5.1796875,2.4746094c-1.3393555,1.4892578-2.0185547,3.4121094-1.9125977,5.4121094  c0.105957,2.0009766,0.9848633,3.8398438,2.4746094,5.1796875c1.3881836,1.2490234,3.1518555,1.9238281,5.0048828,1.9238281  c0.1352539,0,0.2709961-0.0039062,0.4072266-0.0107422c4.1293945-0.2197266,7.3110352-3.7578125,7.0922852-7.8867188  C62.5537109,42.5625,61.675293,40.7226562,60.1855469,39.3837891z M49.6782227,45.2519531  c-0.0776367-1.4677734,0.4204102-2.8769531,1.402832-3.9697266c0.755249-0.8393555,1.7290649-1.4072266,2.8047485-1.6633301  l0.5722656,10.7907715c-1.0964966-0.1400757-2.1256714-0.6046143-2.9653931-1.3598633  C50.4003906,48.0673828,49.7558594,46.71875,49.6782227,45.2519531z M56.4551392,50.303894l-0.5717163-10.77948  c1.0956421,0.1415405,2.1256104,0.5916748,2.9647217,1.3466797c1.0922852,0.9824219,1.7368164,2.3310547,1.8149414,3.7978516  C60.8051758,47.355835,58.9829712,49.6973267,56.4551392,50.303894z"></path><path d="M47.6704102,30.875c0,0.5527344,0.4477539,1,1,1h11.9746094c0.5522461,0,1-0.4472656,1-1s-0.4477539-1-1-1H48.6704102  C48.1181641,29.875,47.6704102,30.3222656,47.6704102,30.875z"></path><path d="M46.6787109,22.5h11.9746094c0.5522461,0,1-0.4472656,1-1s-0.4477539-1-1-1H46.6787109c-0.5522461,0-1,0.4472656-1,1  S46.1264648,22.5,46.6787109,22.5z"></path></svg>