<svg height='100px' width='100px'  fill="#FFFFFF" xmlns="http://www.w3.org/2000/svg" viewBox="0 0 64 64" x="0px" y="0px"><title>soldering-iron-construction-welding-weld</title><g><polygon points="28.849 26.004 30.263 27.418 32.385 29.54 33.799 28.126 29.557 23.883 28.142 25.297 28.849 26.004 28.849 26.004"></polygon><path d="M10,51.682h4v-4H10Zm1-3h2v2H11Z"></path><path d="M15.985,43.111l-1.278,1.278a1,1,0,0,1-1.414-1.414L14.571,41.7l.007-.016H4v16H44v-16H19.324ZM24,46.682h2a1,1,0,0,1,1-1v-2h2v2h2v-2h2v2a1,1,0,0,1,1,1h8v2H34v2h8v2H34a1,1,0,0,1-1,1v2H31v-2H29v2H27v-2a1,1,0,0,1-1-1H16a1,1,0,0,1-1,1v2H13v-2H11v2H9v-2a1,1,0,0,1-1-1H6v-2H8v-2H6v-2H8a1,1,0,0,1,1-1v-2h2v2h4a1,1,0,0,1,1,1h2v2H16v2H26v-2H24Zm-4,0h2v2H20Z"></path><polygon points="29.557 29.54 28.849 28.833 28.142 28.125 18.379 37.89 17.318 40.363 19.793 39.303 29.557 29.54"></polygon><path d="M32,47.682H28v4h4Zm-1,3H29v-2h2Z"></path><path d="M60.293,12.945l-5.661,5.661a2.048,2.048,0,0,1-2.829,0,2,2,0,0,1,0-2.828l4.95-4.95a4,4,0,0,0,0-5.656,4.1,4.1,0,0,0-5.657,0L40.87,15.4l-.707-.708-8.485,8.486,1.414,1.414,1.414,1.415,1.415-1.415-1.415-1.414,1.414-1.414,1.415,1.414,1.414-1.414-1.415-1.414,1.415-1.414.707.707h0l.707.707,2.829-2.829-.707-.708L52.51,6.586a2.048,2.048,0,0,1,2.829,0,2,2,0,0,1,0,2.828l-4.95,4.95a4,4,0,0,0,5.657,5.657l5.661-5.662Z"></path></g></svg>